<svg xmlns="http://www.w3.org/2000/svg" width="40" height="40" viewBox="0 0 40 40" fill="none">
<g id="Logos / GitLab_logo">
<path id="Vector_7" d="M39.1314 16.0056L39.0768 15.864L33.6585 1.72975C33.5501 1.45154 33.3551 1.21559 33.1023 1.05681C32.8497 0.895192 32.5523 0.817817 32.253 0.835806C31.9534 0.850345 31.6662 0.95967 31.4328 1.14801C31.1994 1.33635 31.0318 1.59397 30.9543 1.88371L27.304 13.0705H12.5042L8.83907 1.88371C8.76073 1.59571 8.59291 1.34006 8.35981 1.15365C8.12518 0.967771 7.83861 0.859333 7.53969 0.84332C7.24078 0.827307 6.94427 0.904508 6.69111 1.06426C6.43897 1.22384 6.24415 1.45953 6.13488 1.7372L0.719054 15.864L0.664423 16.0056C-0.115361 18.0433 -0.211506 20.2793 0.390483 22.3764C0.992473 24.4735 2.25996 26.318 4.00182 27.6318L4.0192 27.6443L4.06887 27.6815L12.3205 33.8597L16.4028 36.9488L18.886 38.826C19.1771 39.047 19.5325 39.1666 19.8979 39.1666C20.2634 39.1666 20.6187 39.047 20.9098 38.826L23.393 36.9488L27.4754 33.8597L35.7742 27.6517L35.7965 27.6368C37.5387 26.3221 38.8061 24.4765 39.4077 22.3785C40.0092 20.2805 39.9123 18.0437 39.1314 16.0056Z" fill="#E24329"/>
<path id="Vector_8" d="M39.1312 16.0056L39.0766 15.864C36.4372 16.4059 33.9502 17.5243 31.7934 19.1393L19.8965 28.1334L27.4752 33.8597L35.774 27.6517L35.7963 27.6368C37.5385 26.3221 38.8059 24.4765 39.4075 22.3785C40.009 20.2804 39.9121 18.0437 39.1312 16.0056Z" fill="#FC6D26"/>
<path id="Vector_9" d="M12.3203 33.8595L16.4027 36.9486L18.8859 38.8259C19.1769 39.0468 19.5323 39.1664 19.8977 39.1664C20.2632 39.1664 20.6186 39.0468 20.9096 38.8259L23.3928 36.9486L27.4752 33.8595L19.8965 28.1333L12.3203 33.8595Z" fill="#FCA326"/>
<path id="Vector_10" d="M7.99975 19.1393C5.84413 17.5239 3.35782 16.4054 0.719054 15.864L0.664423 16.0056C-0.115361 18.0432 -0.211506 20.2792 0.390483 22.3763C0.992473 24.4734 2.25996 26.318 4.00182 27.6318L4.0192 27.6442L4.06887 27.6815L12.3205 33.8597L19.8967 28.1334L7.99975 19.1393Z" fill="#FC6D26"/>
</g>
</svg>