<svg xmlns="http://www.w3.org/2000/svg" xml:space="preserve" id="svg2" version="1.1" viewBox="0 0 32 30" width="32" height="30" class="logo-img"><path id="path49298" fill="#ffb142" d="M16.996 0a5.69 5.69 0 0 0-5.685 5.682 5.69 5.69 0 0 0 5.685 5.681 5.689 5.689 0 0 0 5.684-5.681A5.689 5.689 0 0 0 16.996 0Zm0 1.92a3.767 3.767 0 0 1 3.764 3.762 3.767 3.767 0 0 1-3.764 3.761 3.767 3.767 0 0 1-3.764-3.761 3.767 3.767 0 0 1 3.764-3.762zM6.568 3.494a3.94 3.94 0 0 0-3.937 3.934 3.942 3.942 0 0 0 3.937 3.935 3.942 3.942 0 0 0 3.938-3.935 3.94 3.94 0 0 0-3.938-3.934zm0 1.92c1.112 0 2.016.903 2.016 2.014a2.018 2.018 0 0 1-2.016 2.015 2.018 2.018 0 0 1-2.015-2.015c0-1.111.904-2.014 2.015-2.014zm-3.437 6.813A3.134 3.134 0 0 0 0 15.355v11.518A3.132 3.132 0 0 0 3.13 30h17.321a3.132 3.132 0 0 0 3.131-3.127V15.355a3.134 3.134 0 0 0-3.13-3.128zm26.889.097a2.206 2.206 0 0 0-1.094.26l-3.762 2.344a.961.961 0 0 0-.508.845v10.682a.96.96 0 0 0 .508.846l3.762 2.344c.324.174.684.26 1.043.26a2.2 2.2 0 0 0 1.129-.31c.564-.337.902-.909.902-1.526V14.158c0-.617-.338-1.187-.902-1.525-.33-.197-.703-.3-1.078-.309zM3.13 14.146h17.321c.667 0 1.211.543 1.211 1.21v11.517c0 .667-.544 1.209-1.21 1.209H3.13a1.212 1.212 0 0 1-1.211-1.209V15.355c0-.666.544-1.209 1.21-1.209zm26.837.098c.043 0 .081.008.111.02v13.699a.308.308 0 0 1-.244-.01l-3.256-2.072v-9.534l3.256-2.072a.279.279 0 0 1 .133-.031z"></path></svg>